<svg width="18" height="18" viewBox="0 0 18 18" fill="none" xmlns="http://www.w3.org/2000/svg">
<path d="M15.3655 12.855L12.3167 10.083C12.1727 9.95184 11.9833 9.88186 11.7886 9.88788C11.5938 9.8939 11.4091 9.97544 11.2735 10.1153L9.47871 11.961C9.04671 11.8785 8.17821 11.6077 7.28421 10.716C6.39021 9.82125 6.11946 8.9505 6.03921 8.5215L7.88346 6.726C8.02327 6.59035 8.10481 6.40562 8.11083 6.21091C8.11685 6.01619 8.04687 5.82678 7.91571 5.68275L5.14446 2.63475C5.01324 2.49027 4.83087 2.40263 4.63608 2.39044C4.44128 2.37826 4.24941 2.44249 4.10121 2.5695L2.47371 3.96525C2.34404 4.09539 2.26665 4.26859 2.25621 4.452C2.24496 4.6395 2.03046 9.081 5.47446 12.5265C8.47896 15.5302 12.2425 15.75 13.279 15.75C13.4305 15.75 13.5235 15.7455 13.5482 15.744C13.7315 15.7332 13.9044 15.6555 14.0342 15.5257L15.4292 13.8975C15.5567 13.7498 15.6214 13.5581 15.6095 13.3633C15.5976 13.1685 15.51 12.9861 15.3655 12.855Z" fill="#1A5175"/>
</svg>
